<?xml version="1.0" encoding="utf-8"?>
<!-- Generator: Adobe Illustrator 22.1.0, SVG Export Plug-In . SVG Version: 6.00 Build 0)  -->
<svg version="1.1" id="Dot_Chart_1" xmlns="http://www.w3.org/2000/svg" xmlns:xlink="http://www.w3.org/1999/xlink" x="0px"
	 y="0px" viewBox="0 0 32 32" style="enable-background:new 0 0 32 32;" xml:space="preserve">
<style type="text/css">
	.st0{fill:#FFFFFF;}
</style>
<g>
	<path class="st0" d="M27.5,25H7V4.5C7,4.2,6.8,4,6.5,4S6,4.2,6,4.5V25H4.5C4.2,25,4,25.2,4,25.5S4.2,26,4.5,26H6v1.5
		C6,27.8,6.2,28,6.5,28S7,27.8,7,27.5V26h20.5c0.3,0,0.5-0.2,0.5-0.5S27.8,25,27.5,25z"/>
	<path class="st0" d="M11.5,21c1.4,0,2.5-1.1,2.5-2.5c0-0.5-0.2-1-0.4-1.4l2.5-2.5c0.4,0.3,0.9,0.4,1.4,0.4c1.4,0,2.5-1.1,2.5-2.5
		c0-0.2,0-0.5-0.1-0.7l2.7-1.8c0.5,0.6,1.2,0.9,1.9,0.9c1.4,0,2.5-1.1,2.5-2.5s-1.1-2.5-2.5-2.5S22,7,22,8.4c0,0.2,0,0.5,0.1,0.7
		l-2.7,1.8c-0.5-0.6-1.2-0.9-1.9-0.9c-1.4,0-2.5,1.1-2.5,2.5c0,0.5,0.2,1,0.4,1.4l-2.5,2.5C12.5,16.1,12,16,11.5,16
		C10.1,16,9,17.1,9,18.5S10.1,21,11.5,21z M24.5,7C25.3,7,26,7.7,26,8.5S25.3,10,24.5,10S23,9.3,23,8.5S23.7,7,24.5,7z M17.5,11
		c0.8,0,1.5,0.7,1.5,1.5S18.3,14,17.5,14S16,13.3,16,12.5S16.7,11,17.5,11z M11.5,17c0.8,0,1.5,0.7,1.5,1.5S12.3,20,11.5,20
		S10,19.3,10,18.5S10.7,17,11.5,17z"/>
	<path class="st0" d="M11,22.5v1c0,0.3,0.2,0.5,0.5,0.5s0.5-0.2,0.5-0.5v-1c0-0.3-0.2-0.5-0.5-0.5S11,22.2,11,22.5z"/>
	<path class="st0" d="M17,16.5v7c0,0.3,0.2,0.5,0.5,0.5s0.5-0.2,0.5-0.5v-7c0-0.3-0.2-0.5-0.5-0.5S17,16.2,17,16.5z"/>
	<path class="st0" d="M24,12.5v11c0,0.3,0.2,0.5,0.5,0.5s0.5-0.2,0.5-0.5v-11c0-0.3-0.2-0.5-0.5-0.5S24,12.2,24,12.5z"/>
</g>
</svg>
