<?xml version="1.0" encoding="utf-8"?>
<!-- Generator: Adobe Illustrator 22.1.0, SVG Export Plug-In . SVG Version: 6.00 Build 0)  -->
<svg version="1.1" id="Dot_Chart_1" xmlns="http://www.w3.org/2000/svg" xmlns:xlink="http://www.w3.org/1999/xlink" x="0px"
	 y="0px" viewBox="0 0 32 32" style="enable-background:new 0 0 32 32;" xml:space="preserve">
<style type="text/css">
	.st0{fill:none;}
</style>
<g>
	<path class="st0" d="M11,14.1c0.4,2.5,2.4,5.1,5.1,5.1c2.7,0,4.7-2.6,5.1-5.1c0.6-0.2,1-0.7,1-1.4c0-0.4-0.2-0.8-0.5-1.1
		c0.1-0.5,0.2-1.1,0.2-1.6c0-3.3-2.6-6-5.8-6s-5.8,2.7-5.8,6c0,0.5,0.1,1.1,0.2,1.6c-0.3,0.3-0.5,0.7-0.5,1.1
		C10,13.3,10.4,13.9,11,14.1z M11.3,12.3c0.2-0.1,0.3-0.4,0.3-0.6c-0.2-0.5-0.3-1.1-0.3-1.6c0-2.8,2.2-5.1,4.8-5.1
		c2.7,0,4.8,2.3,4.8,5.1c0,0.6-0.1,1.1-0.3,1.6c-0.1,0.2,0,0.5,0.3,0.6c0.2,0.1,0.3,0.2,0.3,0.4c0,0.3-0.2,0.5-0.4,0.5l0,0
		c-0.3,0-0.5,0.2-0.5,0.5c-0.2,2.2-1.9,4.6-4.1,4.6s-4-2.4-4.1-4.6c0-0.3-0.3-0.5-0.5-0.5s-0.4-0.2-0.4-0.5
		C11,12.5,11.1,12.3,11.3,12.3z"/>
	<path class="st0" d="M28,24.6c-2.2-2.1-4.9-3.6-7.8-4.3c-0.1-0.1-0.3-0.1-0.4-0.1h-0.3c-0.2,0-0.3,0-0.5,0.1
		c-0.8,0.4-1.9,0.7-3,0.7s-2.2-0.2-3-0.7c-0.1-0.1-0.3-0.1-0.5-0.1h-0.2c-0.1,0-0.1,0-0.2,0c-3,0.7-5.8,2.2-8.1,4.4
		c-0.2,0.2-0.3,0.4-0.3,0.7V27c0,0.5,0.4,1,1,1h22.5c0.5,0,1-0.4,1-1v-1.7C28.3,25,28.2,24.8,28,24.6z M27.3,27H4.8v-1.7
		c2.2-2.1,4.8-3.5,7.6-4.2h0.2c0.9,0.5,2.2,0.8,3.5,0.8s2.5-0.3,3.5-0.8h0.3H20c2.8,0.7,5.3,2.1,7.4,4.1L27.3,27z M27.3,27.5V27l0,0
		V27.5z"/>
</g>
</svg>
