<?xml version="1.0" encoding="utf-8"?>
<!-- Generator: Adobe Illustrator 22.1.0, SVG Export Plug-In . SVG Version: 6.00 Build 0)  -->
<svg version="1.1" id="Dot_Chart_1" xmlns="http://www.w3.org/2000/svg" xmlns:xlink="http://www.w3.org/1999/xlink" x="0px"
	 y="0px" viewBox="0 0 552 652" style="enable-background:new 0 0 552 652;" xml:space="preserve">
<style type="text/css">
	.st0{fill:#1598D5;}
</style>
<g>
	<path class="st0" d="M71.5,313H51v-20.5c0-0.3-0.2-0.5-0.5-0.5s-0.5,0.2-0.5,0.5V313h-1.5c-0.3,0-0.5,0.2-0.5,0.5s0.2,0.5,0.5,0.5
		H50v1.5c0,0.3,0.2,0.5,0.5,0.5s0.5-0.2,0.5-0.5V314h20.5c0.3,0,0.5-0.2,0.5-0.5S71.8,313,71.5,313z"/>
	<path class="st0" d="M55.5,309c1.4,0,2.5-1.1,2.5-2.5c0-0.5-0.2-1-0.4-1.4l2.5-2.5c0.4,0.3,0.9,0.4,1.4,0.4c1.4,0,2.5-1.1,2.5-2.5
		c0-0.2,0-0.5-0.1-0.7l2.7-1.8c0.5,0.6,1.2,0.9,1.9,0.9c1.4,0,2.5-1.1,2.5-2.5s-1.1-2.5-2.5-2.5s-2.5,1.1-2.5,2.5
		c0,0.2,0,0.5,0.1,0.7l-2.7,1.8c-0.5-0.6-1.2-0.9-1.9-0.9c-1.4,0-2.5,1.1-2.5,2.5c0,0.5,0.2,1,0.4,1.4l-2.5,2.5
		c-0.4-0.3-0.9-0.4-1.4-0.4c-1.4,0-2.5,1.1-2.5,2.5S54.1,309,55.5,309z M68.5,295c0.8,0,1.5,0.7,1.5,1.5s-0.7,1.5-1.5,1.5
		s-1.5-0.7-1.5-1.5S67.7,295,68.5,295z M61.5,299c0.8,0,1.5,0.7,1.5,1.5s-0.7,1.5-1.5,1.5s-1.5-0.7-1.5-1.5S60.7,299,61.5,299z
		 M55.5,305c0.8,0,1.5,0.7,1.5,1.5s-0.7,1.5-1.5,1.5s-1.5-0.7-1.5-1.5S54.7,305,55.5,305z"/>
	<path class="st0" d="M55,310.5v1c0,0.3,0.2,0.5,0.5,0.5s0.5-0.2,0.5-0.5v-1c0-0.3-0.2-0.5-0.5-0.5S55,310.2,55,310.5z"/>
	<path class="st0" d="M61,304.5v7c0,0.3,0.2,0.5,0.5,0.5s0.5-0.2,0.5-0.5v-7c0-0.3-0.2-0.5-0.5-0.5S61,304.2,61,304.5z"/>
	<path class="st0" d="M68,300.5v11c0,0.3,0.2,0.5,0.5,0.5s0.5-0.2,0.5-0.5v-11c0-0.3-0.2-0.5-0.5-0.5S68,300.2,68,300.5z"/>
</g>
</svg>
