<?xml version="1.0" encoding="utf-8"?>
<!-- Generator: Adobe Illustrator 22.1.0, SVG Export Plug-In . SVG Version: 6.00 Build 0)  -->
<svg version="1.1" id="Dot_Chart_1" xmlns="http://www.w3.org/2000/svg" xmlns:xlink="http://www.w3.org/1999/xlink" x="0px"
	 y="0px" viewBox="0 0 552 652" style="enable-background:new 0 0 552 652;" xml:space="preserve">
<style type="text/css">
	.st0{fill:none;}
</style>
<path class="st0" d="M9.8,302.1c0.4,2.5,2.4,5.1,5.1,5.1c2.7,0,4.7-2.6,5.1-5.1c0.6-0.2,1-0.7,1-1.4c0-0.4-0.2-0.8-0.5-1.1
	c0.1-0.5,0.2-1.1,0.2-1.6c0-3.3-2.6-6-5.8-6c-3.2,0-5.8,2.7-5.8,6c0,0.5,0.1,1.1,0.2,1.6c-0.3,0.3-0.5,0.7-0.5,1.1
	C8.8,301.3,9.2,301.9,9.8,302.1z M10.1,300.3c0.2-0.1,0.3-0.4,0.3-0.6c-0.2-0.5-0.3-1.1-0.3-1.6c0-2.8,2.2-5.1,4.8-5.1
	c2.7,0,4.8,2.3,4.8,5.1c0,0.6-0.1,1.1-0.3,1.6c-0.1,0.2,0,0.5,0.3,0.6c0.2,0.1,0.3,0.2,0.3,0.4c0,0.3-0.2,0.5-0.4,0.5h0
	c-0.3,0-0.5,0.2-0.5,0.5c-0.2,2.2-1.9,4.6-4.1,4.6c-2.2,0-4-2.4-4.1-4.6c0-0.3-0.3-0.5-0.5-0.5c-0.2,0-0.4-0.2-0.4-0.5
	C9.8,300.5,9.9,300.3,10.1,300.3z"/>
<path class="st0" d="M26.8,312.6c-2.2-2.1-4.9-3.6-7.8-4.3c-0.1-0.1-0.3-0.1-0.4-0.1h-0.3c-0.2,0-0.3,0-0.5,0.1
	c-0.8,0.4-1.9,0.7-3,0.7c-1.1,0-2.2-0.2-3-0.7c-0.1-0.1-0.3-0.1-0.5-0.1h-0.2c-0.1,0-0.1,0-0.2,0c-3,0.7-5.8,2.2-8.1,4.4
	c-0.2,0.2-0.3,0.4-0.3,0.7v1.7c0,0.5,0.4,1,1,1h22.5c0.5,0,1-0.4,1-1v-1.7C27.1,313,27,312.8,26.8,312.6z M26.1,315l-22.5,0v-1.7
	c2.2-2.1,4.8-3.5,7.6-4.2l0.2,0c0.9,0.5,2.2,0.8,3.5,0.8c1.3,0,2.5-0.3,3.5-0.8l0.3,0c0,0,0.1,0,0.1,0c2.8,0.7,5.3,2.1,7.4,4.1
	L26.1,315z M26.1,315.5V315h0L26.1,315.5z"/>
</svg>
